<svg xmlns="http://www.w3.org/2000/svg" viewBox="0 0 100 100">
  <defs>
    <linearGradient id="bgGradient" x1="0%" y1="0%" x2="100%" y2="100%">
      <stop offset="0%" style="stop-color:#4A90E2;stop-opacity:1"/>
      <stop offset="100%" style="stop-color:#3478C5;stop-opacity:1"/>
    </linearGradient>
    <linearGradient id="mountainGradient" x1="0%" y1="100%" x2="0%" y2="0%">
      <stop offset="0%" style="stop-color:#FFFFFF;stop-opacity:0.9"/>
      <stop offset="100%" style="stop-color:#E0E9F5;stop-opacity:0.7"/>
    </linearGradient>
  </defs>
  
  <!-- 背景圓形 -->
  <circle cx="50" cy="50" r="48" fill="url(#bgGradient)"/>
  
  <!-- 山脈輪廓（更突出的山峰） -->
  <path d="M15 70 L 30 40 L 45 60 L 60 30 L 75 50 L 85 70 L 85 80 L 15 80 Z" fill="url(#mountainGradient)"/>
  
  <!-- 地質層次線條 -->
  <path d="M15 75 L 85 75" stroke="#FFFFFF" stroke-width="1" stroke-opacity="0.5"/>
  <path d="M20 78 L 80 78" stroke="#FFFFFF" stroke-width="1" stroke-opacity="0.3"/>
  
  <!-- 監測波形 -->
  <path d="M20 55 Q 30 45, 40 55 T 60 55 Q 70 45, 80 55" stroke="#DFF0FF" stroke-width="3" fill="none" stroke-linecap="round"/>
  
  <!-- 數據監測點 -->
  <circle cx="30" cy="45" r="3" fill="#FFFFFF"/>
  <circle cx="50" cy="55" r="3" fill="#FFFFFF"/>
  <circle cx="70" cy="45" r="3" fill="#FFFFFF"/>
  
  <!-- 小地震波/地質監測參考線 -->
  <path d="M25 65 Q 32 63, 37 65 T 50 65 Q 57 67, 63 65 T 75 65" stroke="#FFFFFF" stroke-width="1.5" fill="none" stroke-opacity="0.7" stroke-dasharray="0,2.5"/>
</svg>